<?xml version="1.0" encoding="UTF-8"?>
<svg xmlns="http://www.w3.org/2000/svg" xmlns:xlink="http://www.w3.org/1999/xlink" width="1080" height="1920" viewBox="0 0 1080 1920">
<defs>
<g>
<g id="glyph-0-0">
<path d="M 0.6875 -2.28125 L 0.6875 0.140625 L 5.4375 0.140625 L 5.4375 0.515625 L 5.96875 0.515625 L 5.96875 -2.28125 L 5.4375 -2.28125 L 5.4375 -0.359375 L 3.59375 -0.359375 L 3.59375 -2.703125 L 5.703125 -2.703125 L 5.703125 -5 L 5.15625 -5 L 5.15625 -3.1875 L 3.59375 -3.1875 L 3.59375 -5.59375 L 3.046875 -5.59375 L 3.046875 -3.1875 L 1.515625 -3.1875 L 1.515625 -5 L 1 -5 L 1 -2.703125 L 3.046875 -2.703125 L 3.046875 -0.359375 L 1.25 -0.359375 L 1.25 -2.28125 Z "/>
</g>
<g id="glyph-0-1">
<path d="M 0.96875 0.3125 C 1.234375 0.203125 1.59375 0.1875 5.234375 -0.109375 C 5.375 0.09375 5.484375 0.296875 5.5625 0.46875 L 6.046875 0.203125 C 5.734375 -0.375 5.09375 -1.265625 4.484375 -1.921875 L 4.03125 -1.71875 C 4.34375 -1.375 4.65625 -0.953125 4.9375 -0.5625 L 1.640625 -0.3125 C 2.140625 -0.875 2.65625 -1.5625 3.09375 -2.296875 L 6.34375 -2.296875 L 6.34375 -2.796875 L 3.59375 -2.796875 L 3.59375 -4.0625 L 5.84375 -4.0625 L 5.84375 -4.5625 L 3.59375 -4.5625 L 3.59375 -5.609375 L 3.0625 -5.609375 L 3.0625 -4.5625 L 0.875 -4.5625 L 0.875 -4.0625 L 3.0625 -4.0625 L 3.0625 -2.796875 L 0.359375 -2.796875 L 0.359375 -2.296875 L 2.46875 -2.296875 C 2.046875 -1.546875 1.46875 -0.828125 1.296875 -0.625 C 1.09375 -0.375 0.9375 -0.234375 0.796875 -0.1875 C 0.859375 -0.046875 0.9375 0.203125 0.96875 0.3125 Z "/>
</g>
<g id="glyph-0-2">
<path d="M 2.875 -5.140625 L 2.875 -4.65625 L 6.03125 -4.65625 L 6.03125 -5.140625 Z M 0.234375 -0.75 L 0.34375 -0.265625 C 0.984375 -0.453125 1.859375 -0.6875 2.703125 -0.921875 L 2.640625 -1.375 L 1.6875 -1.125 L 1.6875 -2.671875 L 2.453125 -2.671875 L 2.453125 -3.140625 L 1.6875 -3.140625 L 1.6875 -4.625 L 2.546875 -4.625 L 2.546875 -5.09375 L 0.3125 -5.09375 L 0.3125 -4.625 L 1.1875 -4.625 L 1.1875 -3.140625 L 0.40625 -3.140625 L 0.40625 -2.671875 L 1.1875 -2.671875 L 1.1875 -1 Z M 2.59375 -3.203125 L 2.59375 -2.71875 L 3.484375 -2.71875 C 3.421875 -1.234375 3.234375 -0.3125 1.875 0.171875 C 1.984375 0.25 2.125 0.4375 2.171875 0.546875 C 3.640625 -0.015625 3.890625 -1.046875 3.96875 -2.71875 L 4.734375 -2.71875 L 4.734375 -0.1875 C 4.734375 0.328125 4.84375 0.5 5.3125 0.5 C 5.421875 0.5 5.796875 0.5 5.890625 0.5 C 6.328125 0.5 6.4375 0.234375 6.484375 -0.6875 C 6.359375 -0.71875 6.140625 -0.796875 6.03125 -0.890625 C 6.015625 -0.109375 5.984375 0.015625 5.859375 0.015625 C 5.765625 0.015625 5.453125 0.015625 5.390625 0.015625 C 5.25 0.015625 5.21875 -0.015625 5.21875 -0.203125 L 5.21875 -2.71875 L 6.390625 -2.71875 L 6.390625 -3.203125 Z "/>
</g>
</g>
</defs>
<g fill="rgb(34.509804%, 76.862745%, 86.666667%)" fill-opacity="1">
<use xlink:href="#glyph-0-0" x="30" y="27.733398"/>
<use xlink:href="#glyph-0-1" x="37" y="27.733398"/>
<use xlink:href="#glyph-0-2" x="44" y="27.733398"/>
</g>
</svg>
