<?xml version="1.0" encoding="UTF-8"?>
<svg xmlns="http://www.w3.org/2000/svg" xmlns:xlink="http://www.w3.org/1999/xlink" width="1080" height="1920" viewBox="0 0 1080 1920">
<defs>
<g>
<g id="glyph-0-0">
<path d="M 0.5625 0 L 1.125 0 L 1.125 -3.3125 L 0.5625 -3.3125 Z M 0.84375 -4 C 1.0625 -4 1.21875 -4.140625 1.21875 -4.375 C 1.21875 -4.59375 1.0625 -4.734375 0.84375 -4.734375 C 0.625 -4.734375 0.46875 -4.59375 0.46875 -4.375 C 0.46875 -4.140625 0.625 -4 0.84375 -4 Z "/>
</g>
<g id="glyph-0-1">
<path d="M 0.609375 0 L 1.171875 0 L 1.171875 -1.78125 L 1.921875 -1.78125 C 2.90625 -1.78125 3.5625 -2.21875 3.5625 -3.171875 C 3.5625 -4.140625 2.890625 -4.484375 1.890625 -4.484375 L 0.609375 -4.484375 Z M 1.171875 -2.234375 L 1.171875 -4.015625 L 1.828125 -4.015625 C 2.609375 -4.015625 3 -3.8125 3 -3.171875 C 3 -2.515625 2.640625 -2.234375 1.84375 -2.234375 Z "/>
</g>
<g id="glyph-0-2">
<path d="M 0.5625 0 L 1.125 0 L 1.125 -2.40625 C 1.453125 -2.75 1.6875 -2.921875 2.03125 -2.921875 C 2.46875 -2.921875 2.65625 -2.65625 2.65625 -2.03125 L 2.65625 0 L 3.21875 0 L 3.21875 -2.109375 C 3.21875 -2.9375 2.890625 -3.40625 2.203125 -3.40625 C 1.75 -3.40625 1.40625 -3.15625 1.09375 -2.84375 L 1.125 -3.53125 L 1.125 -4.859375 L 0.5625 -4.859375 Z "/>
</g>
<g id="glyph-0-3">
<path d="M 1.84375 0.078125 C 2.65625 0.078125 3.390625 -0.5625 3.390625 -1.65625 C 3.390625 -2.765625 2.65625 -3.40625 1.84375 -3.40625 C 1.03125 -3.40625 0.3125 -2.765625 0.3125 -1.65625 C 0.3125 -0.5625 1.03125 0.078125 1.84375 0.078125 Z M 1.84375 -0.390625 C 1.28125 -0.390625 0.890625 -0.890625 0.890625 -1.65625 C 0.890625 -2.421875 1.28125 -2.9375 1.84375 -2.9375 C 2.421875 -2.9375 2.8125 -2.421875 2.8125 -1.65625 C 2.8125 -0.890625 2.421875 -0.390625 1.84375 -0.390625 Z "/>
</g>
<g id="glyph-0-4">
<path d="M 0.5625 0 L 1.125 0 L 1.125 -2.40625 C 1.453125 -2.75 1.6875 -2.921875 2.03125 -2.921875 C 2.46875 -2.921875 2.65625 -2.65625 2.65625 -2.03125 L 2.65625 0 L 3.21875 0 L 3.21875 -2.109375 C 3.21875 -2.9375 2.890625 -3.40625 2.203125 -3.40625 C 1.75 -3.40625 1.40625 -3.15625 1.09375 -2.828125 L 1.078125 -2.828125 L 1.015625 -3.3125 L 0.5625 -3.3125 Z "/>
</g>
<g id="glyph-0-5">
<path d="M 1.90625 0.078125 C 2.359375 0.078125 2.703125 -0.0625 3 -0.25 L 2.796875 -0.625 C 2.546875 -0.46875 2.296875 -0.359375 1.96875 -0.359375 C 1.34375 -0.359375 0.90625 -0.8125 0.875 -1.53125 L 3.109375 -1.53125 C 3.109375 -1.609375 3.125 -1.71875 3.125 -1.84375 C 3.125 -2.796875 2.65625 -3.40625 1.796875 -3.40625 C 1.046875 -3.40625 0.3125 -2.734375 0.3125 -1.65625 C 0.3125 -0.5625 1.015625 0.078125 1.90625 0.078125 Z M 0.859375 -1.921875 C 0.921875 -2.578125 1.34375 -2.953125 1.8125 -2.953125 C 2.328125 -2.953125 2.640625 -2.59375 2.640625 -1.921875 Z "/>
</g>
<g id="glyph-0-6">
</g>
<g id="glyph-0-7">
<path d="M 0.53125 0 L 3 0 L 3 -0.46875 L 2.09375 -0.46875 L 2.09375 -4.359375 L 1.671875 -4.359375 C 1.421875 -4.203125 1.140625 -4.109375 0.734375 -4.03125 L 0.734375 -3.671875 L 1.546875 -3.671875 L 1.546875 -0.46875 L 0.53125 -0.46875 Z "/>
</g>
<g id="glyph-0-8">
<path d="M 1.828125 0.078125 C 2.53125 0.078125 3.109375 -0.484375 3.109375 -1.3125 C 3.109375 -2.203125 2.625 -2.65625 1.875 -2.65625 C 1.515625 -2.65625 1.125 -2.453125 0.859375 -2.109375 C 0.875 -3.5 1.390625 -3.96875 2.015625 -3.96875 C 2.28125 -3.96875 2.546875 -3.84375 2.71875 -3.625 L 3.03125 -3.984375 C 2.796875 -4.234375 2.453125 -4.4375 1.984375 -4.4375 C 1.125 -4.4375 0.328125 -3.765625 0.328125 -2.015625 C 0.328125 -0.609375 0.96875 0.078125 1.828125 0.078125 Z M 0.875 -1.65625 C 1.171875 -2.09375 1.5 -2.234375 1.78125 -2.234375 C 2.328125 -2.234375 2.59375 -1.875 2.59375 -1.3125 C 2.59375 -0.734375 2.265625 -0.359375 1.828125 -0.359375 C 1.28125 -0.359375 0.9375 -0.8125 0.875 -1.65625 Z "/>
</g>
<g id="glyph-0-9">
<path d="M 0.5625 0 L 1.125 0 L 1.125 -2.125 C 1.34375 -2.6875 1.6875 -2.90625 1.953125 -2.90625 C 2.09375 -2.90625 2.171875 -2.890625 2.28125 -2.84375 L 2.375 -3.328125 C 2.28125 -3.390625 2.171875 -3.40625 2.03125 -3.40625 C 1.65625 -3.40625 1.3125 -3.140625 1.09375 -2.71875 L 1.078125 -2.71875 L 1.015625 -3.3125 L 0.5625 -3.3125 Z "/>
</g>
</g>
</defs>
<g fill="rgb(49.411765%, 84.313725%, 62.745098%)" fill-opacity="1">
<use xlink:href="#glyph-0-0" x="30" y="27.087891"/>
<use xlink:href="#glyph-0-1" x="32" y="27.087891"/>
<use xlink:href="#glyph-0-2" x="36" y="27.087891"/>
<use xlink:href="#glyph-0-3" x="40" y="27.087891"/>
<use xlink:href="#glyph-0-4" x="44" y="27.087891"/>
<use xlink:href="#glyph-0-5" x="48" y="27.087891"/>
<use xlink:href="#glyph-0-6" x="51" y="27.087891"/>
<use xlink:href="#glyph-0-7" x="52" y="27.087891"/>
<use xlink:href="#glyph-0-8" x="55" y="27.087891"/>
<use xlink:href="#glyph-0-6" x="58" y="27.087891"/>
<use xlink:href="#glyph-0-1" x="59" y="27.087891"/>
<use xlink:href="#glyph-0-9" x="63" y="27.087891"/>
<use xlink:href="#glyph-0-3" x="65" y="27.087891"/>
</g>
</svg>
