<?xml version="1.0" encoding="UTF-8"?>
<svg xmlns="http://www.w3.org/2000/svg" xmlns:xlink="http://www.w3.org/1999/xlink" width="1080" height="1920" viewBox="0 0 1080 1920">
<defs>
<g>
<g id="glyph-0-0">
<path d="M 0.765625 0 L 1.53125 0 L 1.53125 -3.28125 C 1.984375 -3.734375 2.296875 -3.96875 2.765625 -3.96875 C 3.359375 -3.96875 3.625 -3.609375 3.625 -2.765625 L 3.625 0 L 4.375 0 L 4.375 -2.859375 C 4.375 -4.015625 3.953125 -4.640625 3 -4.640625 C 2.375 -4.640625 1.921875 -4.296875 1.5 -3.875 L 1.53125 -4.8125 L 1.53125 -6.625 L 0.765625 -6.625 Z "/>
</g>
<g id="glyph-0-1">
<path d="M 0.765625 0 L 1.53125 0 L 1.53125 -4.515625 L 0.765625 -4.515625 Z M 1.15625 -5.453125 C 1.453125 -5.453125 1.65625 -5.65625 1.65625 -5.96875 C 1.65625 -6.25 1.453125 -6.453125 1.15625 -6.453125 C 0.84375 -6.453125 0.65625 -6.25 0.65625 -5.96875 C 0.65625 -5.65625 0.84375 -5.453125 1.15625 -5.453125 Z "/>
</g>
<g id="glyph-0-2">
<path d="M 2.3125 0.109375 C 2.84375 0.109375 3.328125 -0.1875 3.6875 -0.53125 L 3.703125 -0.53125 L 3.765625 0 L 4.390625 0 L 4.390625 -6.625 L 3.625 -6.625 L 3.625 -4.890625 L 3.671875 -4.109375 C 3.265625 -4.4375 2.9375 -4.640625 2.40625 -4.640625 C 1.359375 -4.640625 0.4375 -3.71875 0.4375 -2.25 C 0.4375 -0.75 1.171875 0.109375 2.3125 0.109375 Z M 2.46875 -0.53125 C 1.6875 -0.53125 1.21875 -1.171875 1.21875 -2.265625 C 1.21875 -3.296875 1.8125 -4 2.53125 -4 C 2.90625 -4 3.25 -3.859375 3.625 -3.515625 L 3.625 -1.15625 C 3.25 -0.734375 2.890625 -0.53125 2.46875 -0.53125 Z "/>
</g>
<g id="glyph-0-3">
<path d="M 2.59375 0.109375 C 3.203125 0.109375 3.6875 -0.09375 4.078125 -0.34375 L 3.8125 -0.859375 C 3.46875 -0.640625 3.125 -0.5 2.6875 -0.5 C 1.828125 -0.5 1.234375 -1.109375 1.1875 -2.078125 L 4.234375 -2.078125 C 4.25 -2.203125 4.265625 -2.34375 4.265625 -2.515625 C 4.265625 -3.8125 3.609375 -4.640625 2.453125 -4.640625 C 1.421875 -4.640625 0.4375 -3.734375 0.4375 -2.25 C 0.4375 -0.765625 1.390625 0.109375 2.59375 0.109375 Z M 1.171875 -2.625 C 1.265625 -3.515625 1.828125 -4.03125 2.46875 -4.03125 C 3.1875 -4.03125 3.59375 -3.546875 3.59375 -2.625 Z "/>
</g>
<g id="glyph-0-4">
<path d="M 0.765625 0 L 1.53125 0 L 1.53125 -3.28125 C 1.984375 -3.734375 2.296875 -3.96875 2.765625 -3.96875 C 3.359375 -3.96875 3.625 -3.609375 3.625 -2.765625 L 3.625 0 L 4.375 0 L 4.375 -2.859375 C 4.375 -4.015625 3.953125 -4.640625 3 -4.640625 C 2.375 -4.640625 1.90625 -4.296875 1.484375 -3.859375 L 1.46875 -3.859375 L 1.390625 -4.515625 L 0.765625 -4.515625 Z "/>
</g>
<g id="glyph-0-5">
<path d="M 0.109375 1.171875 L 4.53125 1.171875 L 4.53125 0.671875 L 0.109375 0.671875 Z "/>
</g>
<g id="glyph-0-6">
<path d="M 1.953125 0.109375 C 3.015625 0.109375 3.59375 -0.5 3.59375 -1.234375 C 3.59375 -2.09375 2.875 -2.359375 2.21875 -2.609375 C 1.703125 -2.796875 1.234375 -2.96875 1.234375 -3.390625 C 1.234375 -3.75 1.5 -4.046875 2.078125 -4.046875 C 2.484375 -4.046875 2.796875 -3.875 3.109375 -3.640625 L 3.46875 -4.125 C 3.125 -4.40625 2.625 -4.640625 2.078125 -4.640625 C 1.078125 -4.640625 0.515625 -4.078125 0.515625 -3.359375 C 0.515625 -2.578125 1.203125 -2.28125 1.828125 -2.046875 C 2.328125 -1.859375 2.859375 -1.65625 2.859375 -1.1875 C 2.859375 -0.796875 2.578125 -0.484375 1.96875 -0.484375 C 1.4375 -0.484375 1.03125 -0.703125 0.640625 -1.03125 L 0.265625 -0.515625 C 0.6875 -0.15625 1.3125 0.109375 1.953125 0.109375 Z "/>
</g>
<g id="glyph-0-7">
<path d="M 0.296875 0 L 3.71875 0 L 3.71875 -0.609375 L 1.25 -0.609375 L 3.640625 -4.109375 L 3.640625 -4.515625 L 0.546875 -4.515625 L 0.546875 -3.90625 L 2.671875 -3.90625 L 0.296875 -0.40625 Z "/>
</g>
<g id="glyph-0-8">
</g>
<g id="glyph-0-9">
<path d="M 1.65625 0 L 2.4375 0 C 2.546875 -2.3125 2.828125 -3.671875 4.234375 -5.46875 L 4.234375 -5.9375 L 0.40625 -5.9375 L 0.40625 -5.28125 L 3.375 -5.28125 C 2.203125 -3.65625 1.75 -2.234375 1.65625 0 Z "/>
</g>
<g id="glyph-0-10">
<path d="M 0.625 1.578125 C 1.375 1.265625 1.84375 0.640625 1.84375 -0.15625 C 1.84375 -0.71875 1.59375 -1.046875 1.203125 -1.046875 C 0.890625 -1.046875 0.625 -0.84375 0.625 -0.515625 C 0.625 -0.1875 0.875 0.015625 1.1875 0.015625 L 1.28125 0.015625 C 1.265625 0.515625 0.953125 0.90625 0.4375 1.125 Z "/>
</g>
<g id="glyph-0-11">
<path d="M 0.734375 0 L 4.078125 0 L 4.078125 -0.640625 L 2.859375 -0.640625 L 2.859375 -5.9375 L 2.28125 -5.9375 C 1.9375 -5.734375 1.546875 -5.59375 1 -5.5 L 1 -5.015625 L 2.09375 -5.015625 L 2.09375 -0.640625 L 0.734375 -0.640625 Z "/>
</g>
<g id="glyph-0-12">
<path d="M 2.5 0.109375 C 3.453125 0.109375 4.25 -0.65625 4.25 -1.796875 C 4.25 -3 3.578125 -3.625 2.546875 -3.625 C 2.078125 -3.625 1.546875 -3.34375 1.171875 -2.859375 C 1.203125 -4.765625 1.90625 -5.40625 2.734375 -5.40625 C 3.109375 -5.40625 3.484375 -5.234375 3.71875 -4.953125 L 4.140625 -5.421875 C 3.8125 -5.78125 3.34375 -6.046875 2.703125 -6.046875 C 1.53125 -6.046875 0.453125 -5.125 0.453125 -2.75 C 0.453125 -0.84375 1.328125 0.109375 2.5 0.109375 Z M 1.1875 -2.265625 C 1.59375 -2.84375 2.046875 -3.0625 2.4375 -3.0625 C 3.171875 -3.0625 3.546875 -2.5625 3.546875 -1.796875 C 3.546875 -1 3.078125 -0.484375 2.484375 -0.484375 C 1.734375 -0.484375 1.28125 -1.109375 1.1875 -2.265625 Z "/>
</g>
<g id="glyph-0-13">
<path d="M 2.328125 0.109375 C 3.46875 0.109375 4.234375 -0.578125 4.234375 -1.46875 C 4.234375 -2.265625 3.734375 -2.6875 3.21875 -3 L 3.21875 -3.046875 C 3.578125 -3.3125 4.015625 -3.84375 4.015625 -4.46875 C 4.015625 -5.390625 3.390625 -6.046875 2.34375 -6.046875 C 1.40625 -6.046875 0.671875 -5.4375 0.671875 -4.53125 C 0.671875 -3.90625 1.0625 -3.46875 1.5 -3.15625 L 1.5 -3.125 C 0.953125 -2.828125 0.390625 -2.296875 0.390625 -1.515625 C 0.390625 -0.578125 1.203125 0.109375 2.328125 0.109375 Z M 2.75 -3.234375 C 2.03125 -3.515625 1.359375 -3.8125 1.359375 -4.53125 C 1.359375 -5.109375 1.78125 -5.484375 2.34375 -5.484375 C 2.984375 -5.484375 3.375 -5.015625 3.375 -4.4375 C 3.375 -3.984375 3.140625 -3.59375 2.75 -3.234375 Z M 2.34375 -0.453125 C 1.609375 -0.453125 1.0625 -0.9375 1.0625 -1.578125 C 1.0625 -2.140625 1.421875 -2.578125 1.90625 -2.875 C 2.75 -2.53125 3.515625 -2.28125 3.515625 -1.484375 C 3.515625 -0.875 3.046875 -0.453125 2.34375 -0.453125 Z "/>
</g>
</g>
</defs>
<g fill="rgb(100%, 83.529412%, 29.019608%)" fill-opacity="1">
<use xlink:href="#glyph-0-0" x="30" y="29.666016"/>
<use xlink:href="#glyph-0-1" x="35" y="29.666016"/>
<use xlink:href="#glyph-0-2" x="37" y="29.666016"/>
<use xlink:href="#glyph-0-2" x="42" y="29.666016"/>
<use xlink:href="#glyph-0-3" x="47" y="29.666016"/>
<use xlink:href="#glyph-0-4" x="52" y="29.666016"/>
<use xlink:href="#glyph-0-5" x="57" y="29.666016"/>
<use xlink:href="#glyph-0-6" x="62" y="29.666016"/>
<use xlink:href="#glyph-0-1" x="66" y="29.666016"/>
<use xlink:href="#glyph-0-7" x="68" y="29.666016"/>
<use xlink:href="#glyph-0-3" x="72" y="29.666016"/>
<use xlink:href="#glyph-0-8" x="77" y="29.666016"/>
<use xlink:href="#glyph-0-9" x="79" y="29.666016"/>
<use xlink:href="#glyph-0-10" x="84" y="29.666016"/>
<use xlink:href="#glyph-0-11" x="86" y="29.666016"/>
<use xlink:href="#glyph-0-12" x="91" y="29.666016"/>
<use xlink:href="#glyph-0-13" x="96" y="29.666016"/>
</g>
</svg>
