<?xml version="1.0" encoding="UTF-8"?>
<svg xmlns="http://www.w3.org/2000/svg" xmlns:xlink="http://www.w3.org/1999/xlink" width="1080" height="1920" viewBox="0 0 1080 1920">
<defs>
<g>
<g id="glyph-0-0">
<path d="M 1.234375 0 L 2.359375 0 L 2.359375 -4.015625 L 5.78125 -4.015625 L 5.78125 -4.96875 L 2.359375 -4.96875 L 2.359375 -8 L 6.390625 -8 L 6.390625 -8.953125 L 1.234375 -8.953125 Z "/>
</g>
<g id="glyph-0-1">
<path d="M 1.234375 0 L 2.359375 0 L 2.359375 -3.5625 L 3.84375 -3.5625 C 5.796875 -3.5625 7.140625 -4.4375 7.140625 -6.328125 C 7.140625 -8.28125 5.796875 -8.953125 3.78125 -8.953125 L 1.234375 -8.953125 Z M 2.359375 -4.484375 L 2.359375 -8.046875 L 3.640625 -8.046875 C 5.21875 -8.046875 6.015625 -7.640625 6.015625 -6.328125 C 6.015625 -5.046875 5.265625 -4.484375 3.6875 -4.484375 Z "/>
</g>
<g id="glyph-0-2">
<path d="M 3.21875 0.15625 C 4.8125 0.15625 6.09375 -0.765625 6.09375 -2.328125 C 6.09375 -3.515625 5.25 -4.28125 4.203125 -4.546875 L 4.203125 -4.59375 C 5.140625 -4.9375 5.796875 -5.609375 5.796875 -6.671875 C 5.796875 -8.0625 4.6875 -8.875 3.171875 -8.875 C 2.15625 -8.875 1.359375 -8.40625 0.6875 -7.78125 L 1.28125 -7.078125 C 1.796875 -7.59375 2.421875 -7.96875 3.140625 -7.96875 C 4.078125 -7.96875 4.65625 -7.421875 4.65625 -6.578125 C 4.65625 -5.671875 4.03125 -4.953125 2.171875 -4.953125 L 2.171875 -4.09375 C 4.25 -4.09375 4.953125 -3.40625 4.953125 -2.375 C 4.953125 -1.375 4.21875 -0.765625 3.140625 -0.765625 C 2.125 -0.765625 1.453125 -1.265625 0.921875 -1.796875 L 0.359375 -1.078125 C 0.9375 -0.421875 1.828125 0.15625 3.21875 0.15625 Z "/>
</g>
<g id="glyph-0-3">
<path d="M 0.53125 0 L 6.171875 0 L 6.171875 -0.96875 L 3.640625 -0.96875 C 3.1875 -0.96875 2.640625 -0.921875 2.171875 -0.875 C 4.234375 -3.046875 5.75 -4.6875 5.75 -6.3125 C 5.75 -7.859375 4.734375 -8.875 3.125 -8.875 C 1.984375 -8.875 1.203125 -8.359375 0.484375 -7.546875 L 1.140625 -6.921875 C 1.640625 -7.5 2.265625 -7.96875 3 -7.96875 C 4.109375 -7.96875 4.640625 -7.265625 4.640625 -6.265625 C 4.640625 -4.84375 3.171875 -3.28125 0.53125 -0.65625 Z "/>
</g>
<g id="glyph-0-4">
</g>
<g id="glyph-0-5">
<path d="M 1.125 0 L 2.25 0 L 2.25 -4.8125 C 2.84375 -5.5 3.40625 -5.828125 3.90625 -5.828125 C 4.75 -5.828125 5.140625 -5.296875 5.140625 -4.0625 L 5.140625 0 L 6.25 0 L 6.25 -4.8125 C 6.875 -5.5 7.421875 -5.828125 7.9375 -5.828125 C 8.765625 -5.828125 9.15625 -5.296875 9.15625 -4.0625 L 9.15625 0 L 10.28125 0 L 10.28125 -4.203125 C 10.28125 -5.890625 9.625 -6.8125 8.265625 -6.8125 C 7.453125 -6.8125 6.765625 -6.28125 6.078125 -5.53125 C 5.796875 -6.3125 5.265625 -6.8125 4.234375 -6.8125 C 3.453125 -6.8125 2.765625 -6.3125 2.171875 -5.671875 L 2.15625 -5.671875 L 2.046875 -6.640625 L 1.125 -6.640625 Z "/>
</g>
<g id="glyph-0-6">
<path d="M 2.65625 0.15625 C 3.46875 0.15625 4.21875 -0.265625 4.84375 -0.796875 L 4.890625 -0.796875 L 4.984375 0 L 5.90625 0 L 5.90625 -4.078125 C 5.90625 -5.734375 5.234375 -6.8125 3.609375 -6.8125 C 2.53125 -6.8125 1.59375 -6.328125 1 -5.9375 L 1.421875 -5.171875 C 1.953125 -5.515625 2.65625 -5.875 3.421875 -5.875 C 4.515625 -5.875 4.796875 -5.0625 4.796875 -4.203125 C 1.96875 -3.890625 0.71875 -3.171875 0.71875 -1.71875 C 0.71875 -0.53125 1.546875 0.15625 2.65625 0.15625 Z M 2.96875 -0.75 C 2.3125 -0.75 1.796875 -1.03125 1.796875 -1.796875 C 1.796875 -2.65625 2.546875 -3.203125 4.796875 -3.453125 L 4.796875 -1.609375 C 4.140625 -1.03125 3.609375 -0.75 2.96875 -0.75 Z "/>
</g>
<g id="glyph-0-7">
<path d="M 2.859375 0.15625 C 4.421875 0.15625 5.265625 -0.734375 5.265625 -1.8125 C 5.265625 -3.0625 4.21875 -3.453125 3.25 -3.828125 C 2.5 -4.109375 1.828125 -4.34375 1.828125 -4.96875 C 1.828125 -5.5 2.21875 -5.9375 3.046875 -5.9375 C 3.640625 -5.9375 4.109375 -5.6875 4.5625 -5.359375 L 5.09375 -6.046875 C 4.59375 -6.46875 3.859375 -6.8125 3.046875 -6.8125 C 1.59375 -6.8125 0.75 -5.96875 0.75 -4.921875 C 0.75 -3.78125 1.765625 -3.34375 2.6875 -3 C 3.421875 -2.734375 4.203125 -2.421875 4.203125 -1.75 C 4.203125 -1.171875 3.78125 -0.703125 2.890625 -0.703125 C 2.109375 -0.703125 1.515625 -1.03125 0.921875 -1.5 L 0.390625 -0.75 C 1.015625 -0.234375 1.921875 0.15625 2.859375 0.15625 Z "/>
</g>
<g id="glyph-0-8">
<path d="M 3.203125 0.15625 C 3.609375 0.15625 4.0625 0.03125 4.4375 -0.078125 L 4.21875 -0.921875 C 4 -0.828125 3.703125 -0.75 3.453125 -0.75 C 2.6875 -0.75 2.4375 -1.203125 2.4375 -2.015625 L 2.4375 -5.734375 L 4.234375 -5.734375 L 4.234375 -6.640625 L 2.4375 -6.640625 L 2.4375 -8.5 L 1.5 -8.5 L 1.375 -6.640625 L 0.328125 -6.578125 L 0.328125 -5.734375 L 1.3125 -5.734375 L 1.3125 -2.046875 C 1.3125 -0.71875 1.796875 0.15625 3.203125 0.15625 Z "/>
</g>
<g id="glyph-0-9">
<path d="M 3.8125 0.15625 C 4.703125 0.15625 5.40625 -0.140625 5.984375 -0.515625 L 5.59375 -1.265625 C 5.09375 -0.921875 4.578125 -0.734375 3.9375 -0.734375 C 2.671875 -0.734375 1.8125 -1.640625 1.734375 -3.046875 L 6.203125 -3.046875 C 6.234375 -3.21875 6.25 -3.453125 6.25 -3.6875 C 6.25 -5.578125 5.296875 -6.8125 3.609375 -6.8125 C 2.09375 -6.8125 0.640625 -5.46875 0.640625 -3.3125 C 0.640625 -1.125 2.046875 0.15625 3.8125 0.15625 Z M 1.71875 -3.84375 C 1.859375 -5.171875 2.6875 -5.90625 3.625 -5.90625 C 4.671875 -5.90625 5.28125 -5.1875 5.28125 -3.84375 Z "/>
</g>
<g id="glyph-0-10">
<path d="M 1.125 0 L 2.25 0 L 2.25 -4.265625 C 2.6875 -5.390625 3.359375 -5.796875 3.90625 -5.796875 C 4.1875 -5.796875 4.34375 -5.765625 4.5625 -5.6875 L 4.765625 -6.65625 C 4.5625 -6.765625 4.34375 -6.8125 4.0625 -6.8125 C 3.328125 -6.8125 2.640625 -6.265625 2.171875 -5.421875 L 2.15625 -5.421875 L 2.046875 -6.640625 L 1.125 -6.640625 Z "/>
</g>
<g id="glyph-0-11">
<path d="M 2.9375 -1.421875 L 3.84375 -1.421875 L 3.84375 -4.09375 L 6.328125 -4.09375 L 6.328125 -4.921875 L 3.84375 -4.921875 L 3.84375 -7.59375 L 2.9375 -7.59375 L 2.9375 -4.921875 L 0.46875 -4.921875 L 0.46875 -4.09375 L 2.9375 -4.09375 Z "/>
</g>
<g id="glyph-0-12">
<path d="M 5.765625 -5.09375 L 10.015625 -5.09375 L 10.015625 -4.21875 L 5.765625 -4.21875 Z M 5.765625 -6.625 L 10.015625 -6.625 L 10.015625 -5.765625 L 5.765625 -5.765625 Z M 8.9375 -10.265625 L 8.9375 -9.25 L 7.0625 -9.25 L 7.0625 -10.265625 L 6.1875 -10.265625 L 6.1875 -9.25 L 4.40625 -9.25 L 4.40625 -8.46875 L 6.1875 -8.46875 L 6.1875 -7.546875 L 7.0625 -7.546875 L 7.0625 -8.46875 L 8.9375 -8.46875 L 8.9375 -7.546875 L 9.84375 -7.546875 L 9.84375 -8.46875 L 11.546875 -8.46875 L 11.546875 -9.25 L 9.84375 -9.25 L 9.84375 -10.265625 Z M 4.90625 -7.3125 L 4.90625 -3.53125 L 7.40625 -3.53125 C 7.359375 -3.171875 7.3125 -2.828125 7.21875 -2.515625 L 4.15625 -2.515625 L 4.15625 -1.734375 L 6.953125 -1.734375 C 6.484375 -0.796875 5.609375 -0.140625 3.8125 0.25 C 3.984375 0.421875 4.21875 0.765625 4.296875 0.984375 C 6.421875 0.46875 7.421875 -0.421875 7.90625 -1.703125 C 8.515625 -0.359375 9.65625 0.546875 11.234375 0.984375 C 11.359375 0.75 11.609375 0.40625 11.796875 0.21875 C 10.421875 -0.078125 9.375 -0.75 8.78125 -1.734375 L 11.515625 -1.734375 L 11.515625 -2.515625 L 8.140625 -2.515625 C 8.203125 -2.828125 8.265625 -3.171875 8.296875 -3.53125 L 10.90625 -3.53125 L 10.90625 -7.3125 Z M 2.140625 -10.265625 L 2.140625 -7.90625 L 0.609375 -7.90625 L 0.609375 -7.046875 L 2.140625 -7.046875 L 2.140625 -7.03125 C 1.8125 -5.375 1.09375 -3.4375 0.390625 -2.40625 C 0.546875 -2.1875 0.765625 -1.78125 0.875 -1.515625 C 1.34375 -2.234375 1.78125 -3.34375 2.140625 -4.546875 L 2.140625 0.96875 L 3.015625 0.96875 L 3.015625 -5.328125 C 3.34375 -4.6875 3.734375 -3.890625 3.890625 -3.5 L 4.46875 -4.15625 C 4.265625 -4.53125 3.328125 -6.0625 3.015625 -6.53125 L 3.015625 -7.046875 L 4.28125 -7.046875 L 4.28125 -7.90625 L 3.015625 -7.90625 L 3.015625 -10.265625 Z "/>
</g>
<g id="glyph-0-13">
<path d="M 6.25 -8.828125 C 6.921875 -7.640625 7.578125 -6.078125 7.8125 -5.109375 L 8.609375 -5.46875 C 8.375 -6.421875 7.6875 -7.953125 7 -9.109375 Z M 2.046875 -10.25 L 2.046875 -7.796875 L 0.515625 -7.796875 L 0.515625 -6.9375 L 2.046875 -6.9375 L 2.046875 -4.265625 C 1.390625 -4.0625 0.8125 -3.890625 0.34375 -3.78125 L 0.578125 -2.875 L 2.046875 -3.34375 L 2.046875 -0.109375 C 2.046875 0.0625 1.984375 0.109375 1.828125 0.109375 C 1.6875 0.125 1.203125 0.125 0.6875 0.109375 C 0.796875 0.359375 0.921875 0.734375 0.9375 0.953125 C 1.703125 0.953125 2.1875 0.921875 2.484375 0.78125 C 2.78125 0.640625 2.890625 0.390625 2.890625 -0.109375 L 2.890625 -3.625 L 4.171875 -4.0625 L 4.046875 -4.890625 L 2.890625 -4.515625 L 2.890625 -6.9375 L 4.046875 -6.9375 L 4.046875 -7.796875 L 2.890625 -7.796875 L 2.890625 -10.25 Z M 9.8125 -9.953125 C 9.671875 -5.078125 9.171875 -1.65625 6.53125 0.234375 C 6.75 0.390625 7.140625 0.75 7.265625 0.921875 C 8.46875 -0.03125 9.25 -1.25 9.765625 -2.75 C 10.3125 -1.5625 10.8125 -0.265625 11.03125 0.59375 L 11.90625 0.171875 C 11.609375 -0.90625 10.84375 -2.640625 10.109375 -4 C 10.5 -5.671875 10.65625 -7.625 10.734375 -9.921875 Z M 4.84375 -0.1875 L 4.84375 -0.203125 L 4.859375 -0.171875 C 5.09375 -0.46875 5.4375 -0.78125 8.171875 -2.765625 C 8.078125 -2.9375 7.9375 -3.296875 7.875 -3.546875 L 5.859375 -2.125 L 5.859375 -9.75 L 4.953125 -9.75 L 4.953125 -2.015625 C 4.953125 -1.421875 4.578125 -1.03125 4.34375 -0.875 C 4.515625 -0.703125 4.75 -0.359375 4.84375 -0.1875 Z "/>
</g>
<g id="glyph-0-14">
<path d="M 4.15625 0 L 5.203125 0 L 5.203125 -2.40625 L 6.40625 -2.40625 L 6.40625 -3.296875 L 5.203125 -3.296875 L 5.203125 -8.71875 L 3.96875 -8.71875 L 0.25 -3.140625 L 0.25 -2.40625 L 4.15625 -2.40625 Z M 4.15625 -3.296875 L 1.40625 -3.296875 L 3.453125 -6.28125 C 3.703125 -6.71875 3.953125 -7.09375 4.171875 -7.515625 L 4.21875 -7.515625 C 4.1875 -7.0625 4.15625 -6.296875 4.15625 -5.859375 Z "/>
</g>
</g>
</defs>
<g fill="rgb(94.117647%, 95.294118%, 97.254902%)" fill-opacity="1">
<use xlink:href="#glyph-0-0" x="30" y="34.178711"/>
<use xlink:href="#glyph-0-1" x="37" y="34.178711"/>
<use xlink:href="#glyph-0-2" x="45" y="34.178711"/>
<use xlink:href="#glyph-0-3" x="52" y="34.178711"/>
<use xlink:href="#glyph-0-4" x="59" y="34.178711"/>
<use xlink:href="#glyph-0-5" x="62" y="34.178711"/>
<use xlink:href="#glyph-0-6" x="73" y="34.178711"/>
<use xlink:href="#glyph-0-7" x="80" y="34.178711"/>
<use xlink:href="#glyph-0-8" x="85" y="34.178711"/>
<use xlink:href="#glyph-0-9" x="89" y="34.178711"/>
<use xlink:href="#glyph-0-10" x="96" y="34.178711"/>
<use xlink:href="#glyph-0-4" x="101" y="34.178711"/>
<use xlink:href="#glyph-0-11" x="104" y="34.178711"/>
<use xlink:href="#glyph-0-4" x="111" y="34.178711"/>
</g>
<g fill="rgb(94.117647%, 95.294118%, 97.254902%)" fill-opacity="1">
<use xlink:href="#glyph-0-12" x="114" y="34.178711"/>
<use xlink:href="#glyph-0-13" x="126" y="34.178711"/>
<use xlink:href="#glyph-0-4" x="138" y="34.178711"/>
</g>
<g fill="rgb(94.117647%, 95.294118%, 97.254902%)" fill-opacity="1">
<use xlink:href="#glyph-0-0" x="141" y="34.178711"/>
<use xlink:href="#glyph-0-1" x="148" y="34.178711"/>
<use xlink:href="#glyph-0-14" x="156" y="34.178711"/>
</g>
</svg>
